<svg xmlns="http://www.w3.org/2000/svg" width="18.641" height="18.641" viewBox="0 0 18.641 18.641">
  <g id="grid-fill" transform="translate(0 0)">
    <path id="パス_31" data-name="パス 31" d="M2.25,4.247a2,2,0,0,1,2-2H8.242a2,2,0,0,1,2,2V8.242a2,2,0,0,1-2,2H4.247a2,2,0,0,1-2-2Zm10.652,0a2,2,0,0,1,2-2h3.994a2,2,0,0,1,2,2V8.242a2,2,0,0,1-2,2H14.9a2,2,0,0,1-2-2ZM2.25,14.9a2,2,0,0,1,2-2H8.242a2,2,0,0,1,2,2v3.994a2,2,0,0,1-2,2H4.247a2,2,0,0,1-2-2Zm10.652,0a2,2,0,0,1,2-2h3.994a2,2,0,0,1,2,2v3.994a2,2,0,0,1-2,2H14.9a2,2,0,0,1-2-2Z" transform="translate(-2.25 -2.25)" fill="#dd6ba3" fill-rule="evenodd"/>
  </g>
</svg>
