<svg xmlns="http://www.w3.org/2000/svg" width="47.114" height="47.112" viewBox="0 0 47.114 47.112">
  <g id="search" transform="translate(0)">
    <path id="パス_29" data-name="パス 29" d="M23.7,23.7a2.945,2.945,0,0,1,4.167,0L39.2,35.035A2.945,2.945,0,0,1,35.038,39.2L23.7,27.866a2.945,2.945,0,0,1,0-4.167Z" transform="translate(7.05 7.049)" fill="#dd6ba3" fill-rule="evenodd"/>
    <path id="パス_30" data-name="パス 30" d="M19.14,35.335a16.2,16.2,0,1,0-16.2-16.2A16.2,16.2,0,0,0,19.14,35.335Zm19.14-16.2A19.14,19.14,0,1,1,19.14,0a19.14,19.14,0,0,1,19.14,19.14Z" transform="translate(0 0)" fill="#dd6ba3" fill-rule="evenodd"/>
  </g>
</svg>
