<?xml version="1.0" encoding="UTF-8"?>
<svg id="_レイヤー_1" data-name="レイヤー 1" xmlns="http://www.w3.org/2000/svg" viewBox="0 0 47.06 47.06">
  <defs>
    <style>
      .cls-1 {
        fill: #461100;
        fill-rule: evenodd;
        stroke-width: 0px;
      }
    </style>
  </defs>
  <g id="search">
    <path id="_パス_29" data-name="パス 29" class="cls-1" d="m30.75,30.75c1.15-1.15,3.01-1.15,4.16,0,0,0,0,0,0,0l11.33,11.33c1.12,1.18,1.07,3.04-.1,4.16-1.14,1.08-2.92,1.08-4.06,0l-11.34-11.33c-1.15-1.15-1.15-3.01,0-4.16,0,0,0,0,0,0h0Z"/>
    <path id="_パス_30" data-name="パス 30" class="cls-1" d="m19.14,35.33c8.95,0,16.2-7.25,16.2-16.2S28.09,2.93,19.14,2.93,2.94,10.19,2.94,19.13h0c0,8.95,7.25,16.2,16.2,16.2Zm19.14-16.2c0,10.57-8.56,19.14-19.13,19.15C8.57,38.28,0,29.72,0,19.15,0,8.57,8.56,0,19.13,0c0,0,0,0,0,0C29.71,0,38.28,8.57,38.28,19.14h0Z"/>
  </g>
</svg>