<?xml version="1.0" encoding="UTF-8"?>
<svg id="_レイヤー_1" data-name="レイヤー 1" xmlns="http://www.w3.org/2000/svg" viewBox="0 0 21.72 20.33">
  <defs>
    <style>
      .cls-1 {
        fill-rule: evenodd;
      }

      .cls-1, .cls-2 {
        fill: #461100;
        stroke-width: 0px;
      }
    </style>
  </defs>
  <g id="tags-fill">
    <path id="_パス_32" data-name="パス 32" class="cls-1" d="m4.18,0c-.77,0-1.39.62-1.39,1.39h0v6.39c0,.37.15.72.41.99l9.76,9.76c.54.54,1.43.54,1.97,0l6.39-6.39c.54-.54.54-1.43,0-1.97L11.56.41c-.26-.26-.62-.41-.98-.41h-6.39Zm5.57,4.88c0,1.15-.94,2.09-2.09,2.09-1.15,0-2.09-.94-2.09-2.09,0-1.15.94-2.09,2.09-2.09,0,0,0,0,0,0,1.15,0,2.09.94,2.09,2.09h0Z"/>
    <path id="_パス_33" data-name="パス 33" class="cls-2" d="m1.39,8.48c0,.37.15.72.41.99l10.4,10.39-.06.06c-.54.54-1.43.54-1.97,0L.41,10.17c-.26-.26-.41-.62-.41-.99V2.79c0-.77.62-1.39,1.39-1.39h0v7.09Z"/>
  </g>
</svg>