<svg xmlns="http://www.w3.org/2000/svg" width="21.723" height="20.33" viewBox="0 0 21.723 20.33">
  <g id="tags-fill" transform="translate(0 0)">
    <path id="パス_32" data-name="パス 32" d="M5.894,2.25A1.394,1.394,0,0,0,4.5,3.644v6.392a1.394,1.394,0,0,0,.408.986l9.756,9.756a1.394,1.394,0,0,0,1.971,0l6.392-6.392a1.394,1.394,0,0,0,0-1.971L13.271,2.659a1.394,1.394,0,0,0-.985-.409Zm5.575,4.878A2.091,2.091,0,1,1,9.378,5.038a2.091,2.091,0,0,1,2.091,2.091Z" transform="translate(-1.712 -2.25)" fill="#dd6ba3" fill-rule="evenodd"/>
    <path id="パス_33" data-name="パス 33" d="M1.394,11.589a1.394,1.394,0,0,0,.408.986L12.2,22.968l-.06.06a1.394,1.394,0,0,1-1.971,0L.409,13.272A1.394,1.394,0,0,1,0,12.286V5.894A1.394,1.394,0,0,1,1.394,4.5Z" transform="translate(0 -3.106)" fill="#dd6ba3"/>
  </g>
</svg>
