<?xml version="1.0" encoding="UTF-8"?>
<svg id="_2" data-name="2" xmlns="http://www.w3.org/2000/svg" viewBox="0 0 512 341.33">
  <defs>
    <style>
      .cls-1 {
        fill: #461100;
        stroke-width: 0px;
      }
    </style>
  </defs>
  <path class="cls-1" d="m475.73,0H36.27C16.25,0,0,16.25,0,36.27v248.61c0,31.18,25.26,56.44,56.44,56.44h399.11c31.18,0,56.44-25.26,56.44-56.44V36.27c0-20.02-16.25-36.27-36.27-36.27Zm-177.06,63.49c0-3.65,2.95-6.6,6.6-6.6h43.69c3.64,0,6.6,2.95,6.6,6.6v43.68c0,3.65-2.95,6.6-6.6,6.6h-43.69c-3.64,0-6.6-2.96-6.6-6.6v-43.68h0Zm0,85.32c0-3.64,2.95-6.59,6.6-6.59h43.69c3.64,0,6.6,2.95,6.6,6.59v43.7c0,3.65-2.95,6.6-6.6,6.6h-43.69c-3.64,0-6.6-2.95-6.6-6.6v-43.7h0Zm-85.34-85.32c0-3.65,2.95-6.6,6.6-6.6h43.7c3.64,0,6.6,2.95,6.6,6.6v43.68c0,3.65-2.95,6.6-6.6,6.6h-43.71c-3.64,0-6.6-2.96-6.6-6.6v-43.68h0Zm0,85.32c0-3.64,2.95-6.59,6.6-6.59h43.7c3.64,0,6.6,2.95,6.6,6.59v43.7c0,3.65-2.95,6.6-6.6,6.6h-43.71c-3.64,0-6.6-2.95-6.6-6.6v-43.7h0Zm-85.33-85.32c0-3.65,2.95-6.6,6.6-6.6h43.69c3.64,0,6.6,2.95,6.6,6.6v43.68c0,3.65-2.95,6.6-6.6,6.6h-43.69c-3.64,0-6.6-2.96-6.6-6.6v-43.68h0Zm0,85.32c0-3.64,2.95-6.59,6.6-6.59h43.69c3.64,0,6.6,2.95,6.6,6.59v43.7c0,3.65-2.95,6.6-6.6,6.6h-43.69c-3.64,0-6.6-2.95-6.6-6.6v-43.7h0Zm-28.44,129.05c0,3.64-2.95,6.59-6.6,6.59h-43.69c-3.64,0-6.6-2.95-6.6-6.59v-43.71c0-3.64,2.96-6.59,6.6-6.59h43.69c3.64,0,6.6,2.95,6.6,6.59v43.71Zm0-85.34c0,3.65-2.95,6.6-6.6,6.6h-43.69c-3.64,0-6.6-2.95-6.6-6.6v-43.71c0-3.64,2.96-6.59,6.6-6.59h43.69c3.64,0,6.6,2.95,6.6,6.59v43.71Zm0-85.34c0,3.65-2.95,6.6-6.6,6.6h-43.69c-3.64,0-6.6-2.96-6.6-6.6v-43.68c0-3.65,2.96-6.6,6.6-6.6h43.69c3.64,0,6.6,2.95,6.6,6.6v43.68Zm284.44,170.68c0,3.64-2.95,6.59-6.6,6.59h-242.81c-3.64,0-6.6-2.95-6.6-6.59v-43.71c0-3.64,2.95-6.59,6.6-6.59h242.81c3.64,0,6.6,2.95,6.6,6.59v43.71Zm85.33,0c0,3.64-2.95,6.59-6.6,6.59h-43.69c-3.64,0-6.6-2.95-6.6-6.59v-43.71c0-3.64,2.96-6.59,6.6-6.59h43.69c3.64,0,6.6,2.95,6.6,6.59v43.71h0Zm0-85.34c0,3.65-2.95,6.6-6.6,6.6h-72.14c-3.64,0-6.6-2.95-6.6-6.6V63.49c0-3.65,2.95-6.6,6.6-6.6h72.14c3.64,0,6.6,2.95,6.6,6.6v129.02h0Z"/>
</svg>