<?xml version="1.0" encoding="UTF-8"?><svg id="_レイヤー_2" xmlns="http://www.w3.org/2000/svg" viewBox="0 0 39.65 29.61"><defs><style>.cls-1{fill:none;stroke:#ed9027;stroke-miterlimit:10;stroke-width:1.5px;}</style></defs><g id="_感染症"><g><g><polyline class="cls-1" points="2.47 18.3 .81 18.3 1.57 7.75 9.31 7.75 10.08 18.3 8.29 18.3"/><line class="cls-1" x1="3.72" y1="18.3" x2="3.72" y2="29.61"/><line class="cls-1" x1="7.17" y1="18.3" x2="7.17" y2="29.61"/><circle class="cls-1" cx="5.44" cy="3.4" r="2.65"/></g><g><polyline class="cls-1" points="31.24 18.3 29.58 18.3 30.35 7.75 38.08 7.75 38.85 18.3 37.06 18.3"/><line class="cls-1" x1="32.49" y1="18.3" x2="32.49" y2="29.61"/><line class="cls-1" x1="35.94" y1="18.3" x2="35.94" y2="29.61"/><circle class="cls-1" cx="34.21" cy="3.4" r="2.65"/></g><polygon class="cls-1" points="15.46 13.77 15.46 10.97 11.92 14.7 15.46 18.3 15.46 15.57 24.2 15.57 24.2 18.3 27.73 14.63 24.07 10.97 24.13 13.86 15.46 13.77"/></g></g></svg>