<?xml version="1.0" encoding="UTF-8"?><svg id="_レイヤー_2" xmlns="http://www.w3.org/2000/svg" viewBox="0 0 41.2 39.49"><defs><style>.cls-1{fill:#ed9027;}.cls-2{fill:none;stroke:#ed9027;stroke-miterlimit:10;stroke-width:2px;}</style></defs><g id="_感染症"><g><path class="cls-1" d="M22.98,30.87c-2.17,0-4.34,0-6.52,0-.22,0-.22,0-.22-.22,.01-.52-.04-1.03,.05-1.55,.12-.75,.46-1.39,.95-1.96,.08-.09,.16-.19,.25-.28,.47-.48,1.01-.87,1.62-1.17,.07-.03,.18-.05,.18-.12,0-.06-.11-.08-.17-.12-.42-.22-.81-.48-1.18-.78-.18-.14-.35-.29-.51-.45-.07-.07-.07-.12,.01-.17,.56-.42,1.13-.85,1.69-1.27,.33-.25,.65-.51,.98-.75,.58-.44,1.15-.87,1.73-1.31,.08-.06,.16-.12,.24-.19,.03-.02,.07-.04,.06-.08,0-.05-.06-.04-.1-.05-.57-.12-1.13-.23-1.7-.35-1.01-.21-2.03-.41-3.04-.61-.66-.13-1.32-.26-1.98-.39-.13-.02-.19-.08-.18-.21,.02-.47,.03-.95,.15-1.4,.15-.59,.32-1.18,.6-1.72,.34-.66,.75-1.28,1.27-1.82,.72-.75,1.55-1.35,2.5-1.78,.9-.4,1.85-.63,2.84-.69,1.27-.08,2.48,.12,3.65,.61,.58,.24,1.13,.55,1.63,.93,.48,.36,.92,.77,1.31,1.22,.23,.26,.41,.56,.62,.84,.28,.38,.44,.81,.63,1.23,.32,.72,.44,1.48,.5,2.25,.07,.95-.06,1.88-.36,2.77-.17,.48-.37,.96-.65,1.39-.35,.56-.75,1.08-1.23,1.54-.53,.51-1.11,.94-1.76,1.28-.05,.03-.13,.04-.13,.09,0,.06,.08,.07,.13,.1,.59,.31,1.13,.67,1.6,1.14,.22,.22,.41,.46,.59,.71,.5,.69,.71,1.47,.7,2.31,0,.28,0,.57,0,.85,0,.18,0,.18-.19,.18-2.19,0-4.37,0-6.56,0Z"/><path class="cls-1" d="M12.11,21.82c-1.09-.05-2.14-.11-3.2-.16-.63-.03-1.26-.06-1.89-.09-.26-.01-.51-.02-.77-.03-.19-.01-.3-.12-.3-.29,0-.19,.12-.29,.32-.29,.44,.02,.88,.04,1.32,.06,.48,.02,.96,.05,1.44,.07,1.05,.05,2.1,.09,3.15,.14,.21,0,.33,.12,.32,.3,0,.18-.13,.28-.34,.28-.03,0-.06,0-.06,0Z"/><path class="cls-1" d="M12.8,20.31c-.07,0-.13-.02-.18-.05-.96-.41-1.91-.83-2.87-1.24-.84-.36-1.67-.72-2.51-1.09-.18-.08-.24-.22-.18-.37,.06-.15,.26-.22,.42-.15,.25,.11,.5,.22,.76,.32,1.15,.49,2.3,.99,3.46,1.48,.4,.17,.81,.35,1.21,.52,.15,.07,.23,.2,.2,.34-.03,.14-.15,.23-.3,.23Z"/><path class="cls-1" d="M6.8,25.03c-.15,0-.29-.1-.33-.22-.04-.13,.01-.24,.16-.31,.14-.07,.3-.1,.46-.15,.82-.24,1.65-.47,2.47-.7,.95-.27,1.89-.54,2.84-.8,.2-.06,.34,.02,.4,.2,.04,.14-.05,.29-.23,.34-.76,.22-1.51,.43-2.27,.65-.77,.22-1.54,.44-2.31,.66-.35,.1-.7,.2-1.06,.3-.05,.01-.1,.02-.13,.03Z"/></g><g><ellipse class="cls-2" cx="20.6" cy="19.74" rx="19.6" ry="18.74"/><line class="cls-2" x1="7.65" y1="33.81" x2="34.42" y2="6.45"/></g></g></svg>