<?xml version="1.0" encoding="UTF-8"?><svg id="_レイヤー_2" xmlns="http://www.w3.org/2000/svg" viewBox="0 0 29 29"><defs><style>.cls-1{fill:#ed9027;}.cls-2{fill:none;stroke:#ed9027;stroke-miterlimit:10;stroke-width:2px;}</style></defs><g id="_感染症"><g><path class="cls-1" d="M10.5,15.02c0-.48,0-.95,0-1.43,0-.6,.2-1.13,.61-1.56,.38-.39,.86-.61,1.42-.67,.39-.04,.77,.06,1.15,.09,.25,.01,.5,.04,.74,.06,.38,.03,.76,.07,1.14,.1,.24,.02,.48,.05,.72,.06,.19,.01,.38,.02,.56,.05,.06,0,.11,0,.16-.03,.46-.28,.93-.53,1.37-.83,.19-.13,.38-.26,.62-.28,.26-.03,.57,.13,.7,.38,.12,.24,.07,.49-.15,.7-.11,.11-.23,.21-.34,.32-.16,.16-.31,.35-.48,.5-.32,.3-.61,.64-.96,.9-.39,.29-.84,.44-1.34,.37-.12-.02-.25-.01-.37,0-.38,.02-.75-.03-1.12-.03-.12,0-.16,.02-.14,.16,.08,.66,.14,1.33,.2,1.99,.01,.12,.04,.25,.04,.37,0,.11,.07,.15,.15,.15,.29,.03,.58,.06,.87,.09,.35,.04,.7,.05,1.03,.19,.23,.1,.45,.23,.64,.41,.49,.48,1.01,.92,1.49,1.41,.19,.19,.42,.33,.57,.56,.15,.25,.12,.47-.07,.68-.35,.38-.73,.29-1.1,.04-.56-.38-1.13-.75-1.7-1.12-.03-.02-.06-.04-.1-.04-.26,0-.53,0-.79,.01-.25,.02-.5,.01-.75,.01-.58,0-1.16,.02-1.73,.04-.4,.01-.8,0-1.2-.04-.27-.02-.51-.14-.74-.26-.58-.32-.92-.82-1.05-1.47-.02-.13-.04-.25-.04-.38,0-.5,0-1,0-1.5Z"/><path class="cls-1" d="M10.28,20c.19-.24,.43-.4,.69-.53,.29-.14,.59-.21,.91-.21,.86,0,1.72-.02,2.58,0,.54,.02,1.06,.17,1.44,.6,.03,.03,.06,.06,.08,.1,.11,.18,.17,.39,.31,.56,.08,.09,.06,.22,.07,.33,.04,.36,.04,.72,.1,1.07,.06,.34,.08,.68,.11,1.03,.03,.34,.09,.68,.07,1.02,0,.17-.09,.28-.24,.36-.31,.18-.81,.08-.83-.45,0-.15-.02-.3-.03-.46,0-.11-.06-.16-.18-.16-1.68,0-3.35,0-5.03,0-.13,0-.16,.05-.17,.17-.02,.23,0,.47-.1,.69-.13,.3-.41,.32-.67,.26-.23-.05-.38-.34-.35-.58,.03-.26,.05-.51,.08-.77,.04-.37,.07-.74,.11-1.11,.02-.25,.02-.51,.07-.76,.09-.54-.11-1.04-.21-1.55-.18-.93-.36-1.87-.58-2.79-.14-.59-.26-1.18-.39-1.76-.04-.2-.11-.39-.1-.6,0-.26,.19-.46,.45-.49,.28-.03,.53,.12,.59,.37,.11,.47,.2,.94,.3,1.41,.14,.61,.29,1.22,.41,1.83,.16,.8,.33,1.59,.5,2.41Zm2.57,2.24c.17,0,.33,0,.5,0,.64,0,1.28,0,1.92,0,.1,0,.15,0,.13-.14-.04-.23-.06-.46-.06-.69,0-.13-.05-.16-.17-.16-.59,0-1.18,0-1.76,0-.95,0-1.91,0-2.86,0-.11,0-.17,.02-.17,.15,0,.22-.03,.43-.06,.65-.02,.18-.02,.19,.16,.19,.8,0,1.59,0,2.39,0Z"/><path class="cls-1" d="M13.13,10.78c-.6-.02-1.13-.2-1.6-.59-.61-.52-.85-1.18-.8-1.94,.06-.84,.49-1.46,1.22-1.87,.36-.2,.75-.3,1.17-.3,.45,0,.87,.12,1.27,.34,.52,.29,.84,.73,1.04,1.28,.15,.4,.2,.8,.09,1.21-.16,.59-.45,1.11-.97,1.46-.42,.29-.9,.45-1.42,.43Z"/><path class="cls-1" d="M21.52,16c-.27,0-.77-.1-1.23-.34-.41-.21-.7-.52-.77-1-.02-.17,.08-.33,.25-.35,.05,0,.09,0,.14,0,1.26,0,2.51,0,3.77,0,.36,0,.42,.2,.36,.49-.1,.42-.4,.68-.76,.86-.44,.23-.93,.34-1.75,.34Z"/><path class="cls-1" d="M21.89,16.37c.87,0,1.75,0,2.62,0,.21,0,.36,.12,.39,.3,.04,.21-.06,.4-.25,.47-.05,.02-.11,.02-.16,.02-1.74,0-3.48,0-5.22,0-.31,0-.5-.22-.43-.5,.04-.17,.21-.29,.4-.29,.88,0,1.76,0,2.64,0Z"/><path class="cls-1" d="M16.55,10.1c.45-.04,.89-.08,1.34-.11,.27-.02,.54-.04,.81-.06,.24-.02,.48-.04,.72-.06,.06,0,.16-.04,.17,.05,.01,.08-.01,.16-.11,.22-.17,.1-.36,.08-.54,.1-.49,.05-.97,.08-1.46,.11-.07,0-.1,.04-.12,.1-.2,.5-.9,.65-1.31,.4-.24-.15-.33-.37-.37-.63,0-.06,.04-.07,.08-.07,.26-.02,.52-.04,.79-.06,0,0,0,0,0,0Z"/><path class="cls-1" d="M16.1,10c-.22,0-.26-.08-.17-.31,.09-.21,.33-.34,.61-.32,.22,.01,.43,.19,.49,.39,.04,.14,.01,.17-.13,.18-.27,.02-.53,.04-.8,.05Z"/></g><circle class="cls-2" cx="14.5" cy="14.5" r="13.5"/></g></svg>