<?xml version="1.0" encoding="UTF-8"?><svg id="_レイヤー_2" xmlns="http://www.w3.org/2000/svg" viewBox="0 0 45.49 33.17"><defs><style>.cls-1{fill:none;stroke:#ed9027;stroke-linecap:round;stroke-miterlimit:10;stroke-width:1.5px;}</style></defs><g id="_感染症"><g><polyline class="cls-1" points="10.15 11.08 10.15 6.08 44.74 6.08 44.74 32.42 10.15 32.42 10.15 28.01"/><rect class="cls-1" x="29.13" y="8.02" width="13.52" height="22.36"/><line class="cls-1" x1="37.78" y1="12.42" x2="42.65" y2="17.07"/><line class="cls-1" x1="34.57" y1="13.14" x2="42.65" y2="20.17"/><path class="cls-1" d="M.95,11.08c5.25,6.41,6.57,6.13,9.61,3.18s5.61-5.58,10.39,2.1"/><path class="cls-1" d="M.75,21.27c5.25,6.41,6.57,6.13,9.61,3.18s5.61-5.58,10.39,2.1"/><line class="cls-1" x1="27.05" y1="6.08" x2="27.05" y2="32.42"/><polygon class="cls-1" points="6.69 5.29 5.9 4.1 4.69 3.29 5.87 2.47 6.69 1.29 7.53 2.41 8.69 3.29 7.48 4.1 6.69 5.29"/><polygon class="cls-1" points="3.46 7.55 2.94 6.83 2.17 6.27 2.91 5.7 3.46 4.98 3.98 5.67 4.75 6.27 4.02 6.86 3.46 7.55"/></g></g></svg>