<?xml version="1.0" encoding="UTF-8"?><svg id="_レイヤー_2" xmlns="http://www.w3.org/2000/svg" viewBox="0 0 39.6 23.38"><defs><style>.cls-1{fill:#ed9027;}</style></defs><g id="_感染症"><g><path class="cls-1" d="M38.85,9.25l.75-.23V3.38c0-1.86-1.52-3.38-3.38-3.38H3.38C1.52,0,0,1.52,0,3.38v5.65l.75,.23c1.08,.33,1.8,1.31,1.8,2.43s-.72,2.11-1.8,2.43l-.75,.23v5.65c0,1.86,1.52,3.38,3.38,3.38H36.22c1.86,0,3.38-1.52,3.38-3.38v-5.65l-.75-.23c-1.08-.33-1.8-1.31-1.8-2.43s.72-2.11,1.8-2.43Zm-1.36-1.72c-1.55,.78-2.55,2.37-2.55,4.16s1,3.37,2.55,4.16v4.15c0,.7-.57,1.27-1.27,1.27h-5.75s0-.04,0-.06c0-.04-.02-.09-.03-.13-.01-.04-.03-.08-.04-.12-.02-.04-.04-.08-.06-.12-.02-.04-.04-.08-.07-.11-.02-.04-.05-.07-.08-.11-.03-.03-.06-.07-.09-.1s-.06-.06-.1-.09c-.03-.03-.07-.05-.11-.08-.04-.02-.07-.05-.11-.07-.04-.02-.08-.04-.12-.06-.04-.02-.08-.03-.12-.04-.04-.01-.08-.02-.13-.03-.04,0-.09-.01-.13-.02-.09,0-.18,0-.26,0-.04,0-.09,.01-.13,.02-.04,0-.09,.02-.13,.03-.04,.01-.08,.03-.12,.04-.04,.02-.08,.04-.12,.06-.04,.02-.08,.04-.11,.07-.04,.02-.07,.05-.11,.08-.03,.03-.07,.06-.1,.09-.03,.03-.06,.06-.09,.1-.03,.03-.05,.07-.08,.11-.02,.04-.05,.07-.07,.11-.02,.04-.04,.08-.06,.12-.02,.04-.03,.08-.04,.12-.01,.04-.02,.08-.03,.13,0,.02,0,.04,0,.06H3.38c-.7,0-1.27-.57-1.27-1.27v-4.15c1.55-.78,2.55-2.37,2.55-4.16s-1-3.37-2.55-4.16V3.38c0-.7,.57-1.27,1.27-1.27H27.81s0,.08,.02,.12c0,.04,.02,.09,.03,.13,.01,.04,.03,.08,.04,.12,.02,.04,.04,.08,.06,.12,.02,.04,.04,.08,.07,.11,.02,.04,.05,.07,.08,.11,.03,.03,.06,.07,.09,.1,.03,.03,.06,.06,.1,.09,.03,.03,.07,.05,.11,.08,.04,.02,.07,.05,.11,.07,.04,.02,.08,.04,.12,.06,.04,.02,.08,.03,.12,.04,.04,.01,.08,.02,.13,.03,.04,0,.09,.02,.13,.02,.04,0,.09,0,.13,0s.09,0,.13,0c.04,0,.09-.01,.13-.02,.04,0,.09-.02,.13-.03,.04-.01,.08-.03,.12-.04,.04-.02,.08-.04,.12-.06,.04-.02,.08-.04,.11-.07,.04-.02,.07-.05,.11-.08,.03-.03,.07-.06,.1-.09,.03-.03,.06-.06,.09-.1,.03-.03,.05-.07,.08-.11,.02-.04,.05-.07,.07-.11,.02-.04,.04-.08,.06-.12,.02-.04,.03-.08,.04-.12,.01-.04,.02-.08,.03-.13,0-.04,.01-.08,.02-.12h5.75c.7,0,1.27,.57,1.27,1.27V7.53Z"/><circle class="cls-1" cx="29.14" cy="13.67" r="1.34"/><circle class="cls-1" cx="29.14" cy="17.57" r="1.34"/><circle class="cls-1" cx="29.14" cy="5.87" r="1.34"/><path class="cls-1" d="M29.14,8.43c-.74,0-1.34,.6-1.34,1.34s.6,1.34,1.34,1.34,1.34-.6,1.34-1.34-.6-1.34-1.34-1.34Z"/></g></g></svg>