<?xml version="1.0" encoding="UTF-8"?><svg id="_レイヤー_2" xmlns="http://www.w3.org/2000/svg" viewBox="0 0 38.9 34.44"><defs><style>.cls-1,.cls-2,.cls-3,.cls-4{fill:none;stroke:#ed9027;stroke-miterlimit:10;stroke-width:1.5px;}.cls-2{stroke-dasharray:0 0 2.56 1.79;}.cls-3,.cls-4{stroke-linecap:round;}.cls-4{stroke-dasharray:0 0 1.25 .75;}</style></defs><g id="_感染症"><g><polygon class="cls-1" points="34.6 11.24 30.07 11.24 28.22 11.24 24.4 22.36 24.4 33.47 38.15 33.47 38.15 22.36 34.6 11.24"/><line class="cls-3" x1="30.12" y1="7.34" x2="30.07" y2="11.24"/><line class="cls-3" x1="32.39" y1="7.34" x2="32.39" y2="11.24"/><path class="cls-3" d="M34.89,7.66l2.45,.03V2h-13.11v3.55h4.91l-4.91,6.53c-.56,.69,.16,1.12,.66,.62l5.17-6.58"/><line class="cls-3" x1="27.05" y1="2" x2="27.05" y2="5.55"/><g><rect class="cls-1" x="1.99" y="20.25" width="17.03" height="13.44"/><g><line class="cls-1" x1="1.99" y1="20.25" x2="2.97" y2="21.02"/><line class="cls-2" x1="4.38" y1="22.13" x2="17.34" y2="32.36"/><line class="cls-1" x1="18.04" y1="32.92" x2="19.02" y2="33.69"/></g><g><line class="cls-1" x1="1.99" y1="33.69" x2="2.97" y2="32.92"/><line class="cls-2" x1="4.38" y1="31.81" x2="17.34" y2="21.58"/><line class="cls-1" x1="18.04" y1="21.02" x2="19.02" y2="20.25"/></g></g><line class="cls-4" x1="22.66" y1="3.65" x2="13.04" y2="3.65"/><line class="cls-4" x1="22.66" y1="2.42" x2="13.18" y2=".75"/><line class="cls-4" x1="22.66" y1="4.89" x2="13.18" y2="6.56"/><polygon class="cls-3" points="5.01 16.28 4.35 15.29 3.34 14.61 4.33 13.93 5.01 12.95 5.71 13.88 6.68 14.61 5.67 15.29 5.01 16.28"/><polygon class="cls-3" points="2.32 18.17 1.88 17.56 1.25 17.09 1.86 16.62 2.32 16.02 2.75 16.6 3.4 17.09 2.79 17.59 2.32 18.17"/></g></g></svg>