<?xml version="1.0" encoding="UTF-8"?><svg id="_レイヤー_2" xmlns="http://www.w3.org/2000/svg" viewBox="0 0 45.82 37.82"><defs><style>.cls-1,.cls-2{fill:none;stroke:#ed9027;stroke-linecap:round;stroke-linejoin:round;stroke-width:1.5px;}.cls-2{stroke-dasharray:0 0 .92 .92;}</style></defs><g id="_感染症"><g><path class="cls-1" d="M14.34,22.59l3.46,2.44c.67,.47,1.47,.73,2.29,.73h0c.72,0,1.3-.58,1.3-1.3h0c0-.86-.35-1.68-.96-2.28l-5.47-5.33c-.22-.22-.51-.36-.82-.41l-6.99-1.12c-.19-.03-.38-.1-.55-.2l-4.53-2.66"/><path class="cls-1" d="M.75,18.84l16.75,10.78c.86,.55,1.89,.76,2.9,.59,2.55-.43,7.61-1.18,9.3-2.31,1.15-.77,2.8-2.74-1.09-2.85-2.45-.07-8.63,.71-8.63,.71"/><g><g><line class="cls-1" x1="22.69" y1="7.84" x2="22.69" y2="8.34"/><line class="cls-2" x1="22.69" y1="9.26" x2="22.69" y2="17.99"/><line class="cls-1" x1="22.69" y1="18.45" x2="22.69" y2="18.95"/></g><g><line class="cls-1" x1="23.69" y1="7.93" x2="23.78" y2="8.42"/><line class="cls-2" x1="23.94" y1="9.32" x2="25.45" y2="17.92"/><line class="cls-1" x1="25.53" y1="18.37" x2="25.62" y2="18.86"/></g><g><line class="cls-1" x1="21.69" y1="7.93" x2="21.6" y2="8.43"/><line class="cls-2" x1="21.44" y1="9.33" x2="19.92" y2="17.92"/><line class="cls-1" x1="19.84" y1="18.38" x2="19.76" y2="18.87"/></g></g><polygon class="cls-1" points="30.07 3.99 24.84 3.99 22.42 5.37 21.13 5.23 21.13 3.44 24.54 .75 37.47 .75 39.11 2.21 37.63 3.99 35.5 3.99 30.07 3.99"/><line class="cls-1" x1="31.57" y1="4.66" x2="31.57" y2="12.04"/><line class="cls-1" x1="34.22" y1="4.66" x2="34.22" y2="12.04"/><polyline class="cls-1" points="26.49 37.07 39.8 37.07 39.8 19.11 36.29 16.21 36.29 12.73 34.89 12.73 30.75 12.73 29.62 12.73 29.62 16.25 26.22 19.11 26.22 22.94"/><polyline class="cls-1" points="19.76 37.07 26.49 37.07 26.49 31.37"/><line class="cls-1" x1="45.07" y1="37.07" x2="39.8" y2="37.07"/></g></g></svg>