<?xml version="1.0" encoding="UTF-8"?><svg id="_レイヤー_2" xmlns="http://www.w3.org/2000/svg" viewBox="0 0 33.08 35.43"><defs><style>.cls-1{fill:none;stroke:#ed9027;stroke-miterlimit:10;stroke-width:1.5px;}</style></defs><g id="_感染症"><g><path class="cls-1" d="M26.6,1.07l-13.99,15.18c-.31,.33-.56,.71-.76,1.11l-3.81,7.68c-.26,.52-.59,1-.99,1.41l-3.87,4.08-2.1,2.21c-1.08,1.27,.78,2.5,1.64,1.64l1.97-2.14,3.78-4.11c.41-.44,.88-.82,1.39-1.13l7.56-4.51c.35-.21,.66-.46,.93-.76L31.98,6.65c.49-.54,.46-1.37-.07-1.88l-3.9-3.75c-.4-.38-1.03-.36-1.41,.04Z"/><line class="cls-1" x1="3.18" y1="30.54" x2="4.69" y2="32.25"/><path class="cls-1" d="M21.65,10.23l-6.4,6.61c-.18,.19-.17,.49,.02,.66l1.71,1.59c.19,.18,.48,.17,.66-.02l6.3-6.69c.18-.19,.17-.48-.02-.66l-1.61-1.52c-.19-.17-.48-.17-.65,.02Z"/></g></g></svg>