<?xml version="1.0" encoding="UTF-8"?><svg id="_レイヤー_2" xmlns="http://www.w3.org/2000/svg" viewBox="0 0 17.71 19.08"><defs><style>.cls-1{fill:#404040;}</style></defs><g id="_レイヤー_1-2"><g><path class="cls-1" d="M8.88,9.08c-.36,0-.68-.18-.88-.37L0,.71,.71,0,8.71,8.01c.15,.14,.24,.06,.29,0L17.01,0l.71,.71L9.71,8.71c-.27,.27-.56,.37-.83,.37Z"/><path class="cls-1" d="M8.88,14.08c-.36,0-.68-.18-.88-.37L0,5.71l.71-.71L8.71,13.01c.15,.14,.24,.06,.29,0L17.01,5l.71,.71L9.71,13.71c-.27,.27-.56,.37-.83,.37Z"/><path class="cls-1" d="M8.88,19.08c-.36,0-.68-.18-.88-.37L0,10.71l.71-.71,8,8c.15,.14,.24,.06,.29,0l8.01-8.01,.71,.71-8.01,8.01c-.27,.27-.56,.37-.83,.37Z"/></g></g></svg>