<svg xmlns="http://www.w3.org/2000/svg" width="61.171" height="42.82" viewBox="0 0 61.171 42.82">
  <path id="Icon_awesome-vote-yea" data-name="Icon awesome-vote-yea" d="M58.113,29.777H52v6.117h2.141a.853.853,0,0,1,.918.765v1.529a.853.853,0,0,1-.918.765H7.035a.853.853,0,0,1-.918-.765V36.659a.853.853,0,0,1,.918-.765H9.176V29.777H3.059A3.055,3.055,0,0,0,0,32.836v9.176A3.055,3.055,0,0,0,3.059,45.07H58.113a3.055,3.055,0,0,0,3.059-3.059V32.836A3.055,3.055,0,0,0,58.113,29.777Zm-9.176,6.117V5.337A3.086,3.086,0,0,0,45.85,2.25H15.331a3.094,3.094,0,0,0-3.1,3.087V35.894ZM20.186,18.5l2.437-2.418a1.018,1.018,0,0,1,1.453.01l3.947,3.976,9.1-9.023a1.018,1.018,0,0,1,1.453.01l2.418,2.437a1.018,1.018,0,0,1-.01,1.453L28.722,27.1a1.018,1.018,0,0,1-1.453-.01l-7.082-7.14a1.018,1.018,0,0,1,0-1.453Z" transform="translate(0 -2.25)" fill="#dd6ba3"/>
</svg>
