<svg xmlns="http://www.w3.org/2000/svg" width="43.136" height="45" viewBox="0 0 43.136 45">
  <g id="グループ_96" data-name="グループ 96" transform="translate(-445.767 -679.26)">
    <path id="パス_41" data-name="パス 41" d="M496.068,699.487c3.2-4.275,3.754-9.021,2.87-12.127-1.9-6.665-7.128-8.1-7.128-8.1l-1.528,2.731-2.916-1.3c-1.759,2.222-2.289,8.8-.532,11.8A15.4,15.4,0,0,0,496.068,699.487Z" transform="translate(-27.738 0)" fill="#dd6ba3"/>
    <path id="パス_42" data-name="パス 42" d="M527.081,715.537c5,1.875,9.712,1.074,12.445-.646,5.866-3.69,5.776-9.113,5.776-9.113l-3.05-.7.426-3.162c-2.626-1.065-9.086.27-11.479,2.8A15.4,15.4,0,0,0,527.081,715.537Z" transform="translate(-56.4 -15.46)" fill="#dd6ba3"/>
    <path id="パス_43" data-name="パス 43" d="M493.451,759.961c-5.117,1.531-8.384,5.018-9.521,8.04-2.44,6.487.911,10.751.911,10.751l2.852-1.286,1.573,2.777c2.735-.739,7.073-5.709,7.449-9.171A15.4,15.4,0,0,0,493.451,759.961Z" transform="translate(-25.856 -55.983)" fill="#dd6ba3"/>
    <path id="パス_44" data-name="パス 44" d="M528,754.978c-.3,5.332,1.859,9.592,4.313,11.692,5.266,4.5,10.418,2.809,10.418,2.809l-.237-3.12,3.146-.532c.237-2.824-2.956-8.6-6.082-10.129A15.4,15.4,0,0,0,528,754.978Z" transform="translate(-57.024 -51.972)" fill="#dd6ba3"/>
    <path id="パス_45" data-name="パス 45" d="M466.35,738.232c-3.14-4.321-7.512-6.249-10.74-6.32-6.929-.153-9.843,4.421-9.843,4.421l2.159,2.265-2.1,2.4c1.6,2.336,7.73,4.783,11.121,3.991A15.4,15.4,0,0,0,466.35,738.232Z" transform="translate(0 -36.522)" fill="#dd6ba3"/>
  </g>
</svg>
